<mxfile host="app.diagrams.net" modified="2021-09-13T00:41:01.746Z" agent="5.0 (Windows NT 10.0; Win64; x64) AppleWebKit/537.36 (KHTML, like Gecko) Chrome/93.0.4577.63 Safari/537.36" etag="vgqJrQcpeCivrKUboFXB" version="15.2.1" type="github">
  <diagram id="EIM3uXfCmeFzMPAqTTLa" name="Page-1">
    <mxGraphModel dx="868" dy="482" grid="1" gridSize="10" guides="1" tooltips="1" connect="1" arrows="1" fold="1" page="1" pageScale="1" pageWidth="850" pageHeight="1100" math="0" shadow="0">
      <root>
        <mxCell id="0" />
        <mxCell id="1" parent="0" />
        <mxCell id="KlmzPWXP6-jSVdmwBLBr-1" value="&lt;font style=&quot;font-size: 15px&quot;&gt;Professors&lt;/font&gt;" style="whiteSpace=wrap;html=1;aspect=fixed;" vertex="1" parent="1">
          <mxGeometry x="100" y="100" width="80" height="80" as="geometry" />
        </mxCell>
        <mxCell id="KlmzPWXP6-jSVdmwBLBr-3" value="&lt;font style=&quot;font-size: 15px&quot;&gt;Students&lt;/font&gt;" style="whiteSpace=wrap;html=1;aspect=fixed;" vertex="1" parent="1">
          <mxGeometry x="100" y="270" width="80" height="80" as="geometry" />
        </mxCell>
        <mxCell id="KlmzPWXP6-jSVdmwBLBr-4" value="Courses" style="whiteSpace=wrap;html=1;aspect=fixed;" vertex="1" parent="1">
          <mxGeometry x="380" y="210" width="80" height="80" as="geometry" />
        </mxCell>
        <mxCell id="KlmzPWXP6-jSVdmwBLBr-5" value="Assignments" style="whiteSpace=wrap;html=1;aspect=fixed;" vertex="1" parent="1">
          <mxGeometry x="380" y="100" width="80" height="80" as="geometry" />
        </mxCell>
        <mxCell id="KlmzPWXP6-jSVdmwBLBr-6" value="Grades" style="whiteSpace=wrap;html=1;aspect=fixed;" vertex="1" parent="1">
          <mxGeometry x="600" y="250" width="80" height="80" as="geometry" />
        </mxCell>
        <mxCell id="KlmzPWXP6-jSVdmwBLBr-7" value="Submissions" style="whiteSpace=wrap;html=1;aspect=fixed;" vertex="1" parent="1">
          <mxGeometry x="540" y="110" width="80" height="80" as="geometry" />
        </mxCell>
        <mxCell id="KlmzPWXP6-jSVdmwBLBr-8" value="Comments" style="whiteSpace=wrap;html=1;aspect=fixed;" vertex="1" parent="1">
          <mxGeometry x="380" y="310" width="80" height="80" as="geometry" />
        </mxCell>
      </root>
    </mxGraphModel>
  </diagram>
</mxfile>
